<?xml version="1.0" encoding="UTF-8" standalone="no" ?>
<!DOCTYPE svg PUBLIC "-//W3C//DTD SVG 1.1//EN" "http://www.w3.org/Graphics/SVG/1.1/DTD/svg11.dtd">
<svg xmlns="http://www.w3.org/2000/svg" xmlns:xlink="http://www.w3.org/1999/xlink" version="1.1" width="1080" height="1080" viewBox="0 0 1080 1080" xml:space="preserve">
<desc>Created with Fabric.js 5.2.4</desc>
<defs>
</defs>
<g transform="matrix(1 0 0 1 540 540)" id="01a3b6ac-c4c9-46e2-8fee-d3f868bcc7d1"  >
</g>
<g transform="matrix(1 0 0 1 540 540)" id="41ae6980-2fc3-4c9a-ae04-08c00f840eb9"  >
<rect style="stroke: none; stroke-width: 1; stroke-dasharray: none; stroke-linecap: butt; stroke-dashoffset: 0; stroke-linejoin: miter; stroke-miterlimit: 4; fill: rgb(255,255,255); fill-rule: nonzero; opacity: 1; visibility: hidden;" vector-effect="non-scaling-stroke"  x="-540" y="-540" rx="0" ry="0" width="1080" height="1080" />
</g>
<g transform="matrix(1 0 0 1 540 540)"  >
<g style="" vector-effect="non-scaling-stroke"   >
		<g transform="matrix(1 0 0 1 0 0)"  >
<rect style="stroke: none; stroke-width: 1; stroke-dasharray: none; stroke-linecap: butt; stroke-dashoffset: 0; stroke-linejoin: miter; stroke-miterlimit: 4; fill: rgb(0,0,0); fill-rule: nonzero; opacity: 1;" vector-effect="non-scaling-stroke"  x="-500" y="-500" rx="0" ry="0" width="1000" height="1000" />
</g>
		<g transform="matrix(0.87 0 0 0.87 -0.35 -0.35)"  >
<path style="stroke: none; stroke-width: 1; stroke-dasharray: none; stroke-linecap: butt; stroke-dashoffset: 0; stroke-linejoin: miter; stroke-miterlimit: 10; fill: rgb(255,255,255); fill-rule: nonzero; opacity: 1;" vector-effect="non-scaling-stroke"  transform=" translate(-425.3, -425.35)" d="M 827.2 486 C 827 464.8 813.6 448 813.4000000000001 426.8 C 813.3000000000001 405.6 826.5000000000001 380 826.3000000000001 358.8 C 819.6 338.7 801.6 326.90000000000003 794.9000000000001 306.8 C 788.2 286.7 792.8000000000001 258.2 786.2 238.10000000000002 C 773.6 221.00000000000003 752.8000000000001 215.40000000000003 740.3000000000001 198.40000000000003 C 727.7 181.30000000000004 723.3000000000001 152.80000000000004 710.8000000000001 135.80000000000004 C 693.6 123.50000000000004 672.1 124.50000000000004 654.8000000000001 112.20000000000005 C 637.6 99.90000000000005 624.6 74.10000000000005 607.3000000000001 61.80000000000005 C 587.1 55.40000000000005 567.0000000000001 63.100000000000044 546.8000000000001 56.600000000000044 C 526.6 50.200000000000045 506.30000000000007 29.700000000000045 486.1000000000001 23.300000000000047 C 464.9000000000001 23.500000000000046 448.1000000000001 36.90000000000005 426.9000000000001 37.10000000000005 C 405.7000000000001 37.20000000000005 380.1000000000001 24.00000000000005 358.9000000000001 24.200000000000053 C 338.80000000000007 30.900000000000052 327.0000000000001 48.90000000000005 306.9000000000001 55.60000000000005 C 286.80000000000007 62.300000000000054 258.30000000000007 57.70000000000005 238.2000000000001 64.40000000000005 C 221.1000000000001 77.00000000000004 215.5000000000001 97.80000000000004 198.5000000000001 110.30000000000004 C 181.40000000000012 122.90000000000003 152.90000000000012 127.30000000000004 135.90000000000012 139.90000000000003 C 123.60000000000012 157.10000000000002 124.60000000000012 178.60000000000002 112.30000000000013 195.90000000000003 C 100.00000000000013 213.10000000000002 74.20000000000013 226.10000000000002 61.90000000000013 243.40000000000003 C 55.50000000000013 263.6 63.10000000000013 283.70000000000005 56.700000000000124 303.90000000000003 C 50.300000000000125 324.1 29.800000000000125 344.40000000000003 23.400000000000126 364.6 C 23.500000000000128 385.8 37.00000000000013 402.6 37.20000000000013 423.8 C 37.30000000000013 445 24.10000000000013 470.6 24.300000000000132 491.8 C 31.00000000000013 511.90000000000003 49.00000000000013 523.7 55.70000000000013 543.8 C 62.400000000000134 563.9 57.80000000000013 592.4 64.50000000000013 612.5 C 77.10000000000012 629.6 97.90000000000012 635.2 110.40000000000012 652.3 C 123.00000000000011 669.4 127.40000000000012 697.9 139.90000000000012 714.9 C 157.1000000000001 727.1999999999999 178.60000000000014 726.1999999999999 195.90000000000012 738.5 C 213.1000000000001 750.8 226.1000000000001 776.6 243.40000000000012 788.9 C 263.60000000000014 795.3 283.7000000000001 787.6999999999999 303.9000000000001 794.1 C 324.1000000000001 800.5 344.4000000000001 821 364.6000000000001 827.4 C 385.80000000000007 827.1999999999999 402.6000000000001 813.8 423.80000000000007 813.6 C 445.00000000000006 813.5 470.6000000000001 826.7 491.80000000000007 826.5 C 511.9000000000001 819.8 523.7 801.8 543.8000000000001 795.1 C 563.9000000000001 788.4 592.4000000000001 793 612.5000000000001 786.3000000000001 C 629.6000000000001 773.7 635.2000000000002 752.9000000000001 652.3000000000001 740.4000000000001 C 669.4000000000001 727.8000000000001 697.9000000000001 723.4000000000001 714.9000000000001 710.9000000000001 C 727.2 693.7 726.2 672.2 738.5000000000001 654.9000000000001 C 750.8000000000001 637.7 776.6000000000001 624.7 788.9000000000001 607.4000000000001 C 795.3000000000001 587.2 787.7 567.1000000000001 794.1000000000001 546.9000000000001 C 800.3000000000002 526.5000000000001 820.8000000000002 506.2000000000001 827.2000000000002 486.0000000000001 z M 792 544.4 C 782.9 562.3 760.6 578.1999999999999 751.4 596.1 C 742.3 614 746.3 634 737.1999999999999 651.9 C 722.9999999999999 666.1 696.9 674.3 682.5999999999999 688.5 C 668.3999999999999 702.7 666.0999999999999 723 651.8 737.2 C 633.9 746.3000000000001 606.5 746 588.5999999999999 755.2 C 570.6999999999999 764.3000000000001 562.1999999999999 782.9000000000001 544.3 792 C 524.4 795.1 498.49999999999994 786.4 478.59999999999997 789.5 C 458.7 792.6 444.9 807.7 425.09999999999997 810.8 C 405.2 807.6999999999999 383.29999999999995 791.3 363.4 788.1999999999999 C 343.5 784.9999999999999 325.79999999999995 795.0999999999999 305.9 791.9 C 288 782.8 272.09999999999997 760.4 254.2 751.3 C 236.29999999999998 742.1999999999999 216.29999999999998 746.1999999999999 198.29999999999998 737.0999999999999 C 184.1 722.8999999999999 175.89999999999998 696.8 161.7 682.4999999999999 C 147.5 668.2999999999998 127.19999999999999 665.8999999999999 112.99999999999999 651.6999999999999 C 103.89999999999999 633.8 104.19999999999999 606.4 94.99999999999999 588.4999999999999 C 85.89999999999999 570.5999999999999 67.29999999999998 562.0999999999999 58.19999999999999 544.1999999999999 C 55.09999999999999 524.3 63.79999999999999 498.3999999999999 60.69999999999999 478.49999999999994 C 57.499999999999986 458.59999999999997 42.499999999999986 444.79999999999995 39.39999999999999 424.99999999999994 C 42.599999999999994 405.09999999999997 58.89999999999999 383.19999999999993 61.99999999999999 363.29999999999995 C 65.1 343.4 55.099999999999994 325.69999999999993 58.29999999999999 305.79999999999995 C 67.39999999999999 287.9 89.79999999999998 271.99999999999994 98.89999999999999 254.09999999999997 C 107.99999999999999 236.19999999999996 103.99999999999999 216.19999999999996 113.1 198.19999999999996 C 127.3 183.99999999999997 153.39999999999998 175.79999999999995 167.7 161.59999999999997 C 181.89999999999998 147.39999999999998 184.29999999999998 127.09999999999997 198.5 112.89999999999996 C 216.4 103.79999999999997 243.8 104.09999999999997 261.7 94.89999999999996 C 279.59999999999997 85.79999999999997 288.09999999999997 67.19999999999996 306 58.099999999999966 C 325.9 54.999999999999964 351.8 63.69999999999997 371.7 60.599999999999966 C 391.59999999999997 57.499999999999964 405.4 42.39999999999996 425.2 39.29999999999997 C 445.09999999999997 42.39999999999997 467 58.79999999999997 486.9 61.89999999999997 C 506.79999999999995 65.09999999999997 524.5 54.99999999999997 544.4 58.19999999999997 C 562.3 67.29999999999997 578.1999999999999 89.69999999999996 596.1 98.79999999999997 C 614 107.89999999999996 634 103.89999999999996 652 112.99999999999997 C 666.2 127.19999999999997 674.4 153.29999999999995 688.6 167.59999999999997 C 702.8000000000001 181.79999999999995 723.1 184.19999999999996 737.3000000000001 198.39999999999998 C 746.4000000000001 216.29999999999998 746.1 243.7 755.3000000000001 261.59999999999997 C 764.4000000000001 279.49999999999994 783.0000000000001 287.99999999999994 792.1 305.9 C 795.3000000000001 325.79999999999995 786.5 351.7 789.6 371.59999999999997 C 792.7 391.49999999999994 807.8000000000001 405.29999999999995 810.9 425.09999999999997 C 807.8 444.99999999999994 791.4 466.9 788.3 486.79999999999995 C 785.1999999999999 506.69999999999993 795.1999999999999 524.5 792 544.4 z" stroke-linecap="round" />
</g>
		<g transform="matrix(5.9 0 0 5.9 -0.12 84.48)"  >
<path style="stroke: none; stroke-width: 1; stroke-dasharray: none; stroke-linecap: butt; stroke-dashoffset: 0; stroke-linejoin: miter; stroke-miterlimit: 4; fill: rgb(255,255,255); fill-rule: nonzero; opacity: 1;" vector-effect="non-scaling-stroke"  transform=" translate(-40.95, 18.65)" d="M -0.2 -37.15 L 15.9 -37.15 L 15.65 -34.45 L 11.65 -33.9 L 14.3 -12.4 L 14.75 -6.85 L 16.95 -12.4 L 26.8 -33.9 L 22.45 -34.45 L 22.7 -37.15 L 35.75 -37.15 L 35.3 -34.45 L 31.6 -33.9 L 15.6 0.25 L 8.4 0.25 L 2.85 -33.9 L -0.55 -34.5 L -0.2 -37.15 Z M 34.65 -37.15 L 50.9 -37.15 L 50.6 -34.45 L 46.4 -33.9 L 42.4 -3.25 L 46.65 -2.55 L 46.5 0 L 29.95 0 L 30.3 -2.55 L 33.95 -3.25 L 37.95 -33.9 L 34.4 -34.45 L 34.65 -37.15 Z M 60.84 -37.15 Q 62.4 -37.15 65.2 -37.35 L 65.2 -37.35 Q 67.7 -37.55 68.84 -37.55 L 68.84 -37.55 Q 76.2 -37.55 79.32 -34.93 Q 82.44 -32.3 82.44 -27 L 82.44 -27 Q 82.44 -22.45 80.32 -19.2 Q 78.2 -15.95 74.27 -14.25 Q 70.34 -12.55 65.05 -12.55 L 65.05 -12.55 Q 63.15 -12.55 62.15 -12.7 L 62.15 -12.7 L 61.05 -3.25 L 67.7 -2.55 L 67.55 0 L 48.8 0 L 49.05 -2.55 L 52.4 -3.25 L 56.5 -33.9 L 52.9 -34.45 L 53.25 -37.15 L 60.84 -37.15 Z M 62.55 -15.95 Q 63.4 -15.75 64.27 -15.75 Q 65.15 -15.75 65.3 -15.75 L 65.3 -15.75 Q 69.2 -15.8 71.47 -19 Q 73.75 -22.2 73.8 -27.45 L 73.8 -27.45 Q 73.8 -31.05 72.12 -32.75 Q 70.45 -34.45 67.45 -34.45 L 67.45 -34.45 Q 66.2 -34.45 65.05 -34.25 L 65.05 -34.25 L 62.55 -15.95 Z" stroke-linecap="round" />
</g>
		<g transform="matrix(0.28 0 0 0.28 -0.08 -167.59)"  >
<polygon style="stroke: none; stroke-width: 1; stroke-dasharray: none; stroke-linecap: butt; stroke-dashoffset: 0; stroke-linejoin: miter; stroke-miterlimit: 4; fill: rgb(255,255,255); fill-rule: nonzero; opacity: 1;" vector-effect="non-scaling-stroke"  points="53.35,-5.67 53.35,32.62 -53.35,32.62 -53.35,-5.67 -27.6,17.33 0,-32.61 27.6,17.33 53.35,-5.67 " />
</g>
		<g transform="matrix(0.28 0 0 0.28 -0.13 -138.05)"  >
<path style="stroke: none; stroke-width: 1; stroke-dasharray: none; stroke-linecap: butt; stroke-dashoffset: 0; stroke-linejoin: miter; stroke-miterlimit: 4; fill: rgb(255,255,255); fill-rule: nonzero; opacity: 1;" vector-effect="non-scaling-stroke"  transform=" translate(-240, -240)" d="M 240 32.62 C 125.47 32.62 32.62 125.47 32.62 240 C 32.62 354.53 125.47 447.38 240 447.38 C 354.53 447.38 447.38 354.53 447.38 240 C 447.38 125.47000000000003 354.53 32.62 240 32.62 Z M 178.5 110.82999999999998 L 210.1 139.05999999999997 L 239.85 85.22999999999998 L 269.6 139.05999999999997 L 301.20000000000005 110.82999999999997 L 301.20000000000005 175 L 178.5 175 Z M 296.25 245.25 C 296.25 276.31601717798213 271.06601717798213 301.5 240 301.5 C 208.93398282201787 301.5 183.75 276.31601717798213 183.75 245.25 C 183.75 214.18398282201787 208.93398282201787 189 240 189 C 271.05230899446076 189.03306957976412 296.2169304202358 214.19769100553924 296.25 245.24999999999997 Z M 312.5 405 C 312.5 360.06 279.98 323.5 240 323.5 C 200.01999999999998 323.5 167.5 360.06 167.5 405 L 159.5 405 C 159.5 355.65 195.61 315.5 240 315.5 C 284.39 315.5 320.5 355.65 320.5 405 Z" stroke-linecap="round" />
</g>
		<g transform="matrix(0.28 0 0 0.28 -0.03 -136.48)"  >
<circle style="stroke: none; stroke-width: 1; stroke-dasharray: none; stroke-linecap: butt; stroke-dashoffset: 0; stroke-linejoin: miter; stroke-miterlimit: 4; fill: rgb(255,255,255); fill-rule: nonzero; opacity: 1;" vector-effect="non-scaling-stroke"  cx="0" cy="0" r="48" />
</g>
		<g transform="matrix(2.19 0 0 2.19 160.45 -91.96)"  >
<rect style="stroke: none; stroke-width: 1; stroke-dasharray: none; stroke-linecap: butt; stroke-dashoffset: 0; stroke-linejoin: miter; stroke-miterlimit: 4; fill: rgb(255,255,255); fill-rule: nonzero; opacity: 1;" vector-effect="non-scaling-stroke"  x="-38.695" y="-4.6" rx="0" ry="0" width="77.39" height="9.2" />
</g>
		<g transform="matrix(2.19 0 0 2.19 -160.26 -91.96)"  >
<rect style="stroke: none; stroke-width: 1; stroke-dasharray: none; stroke-linecap: butt; stroke-dashoffset: 0; stroke-linejoin: miter; stroke-miterlimit: 4; fill: rgb(255,255,255); fill-rule: nonzero; opacity: 1;" vector-effect="non-scaling-stroke"  x="-38.695" y="-4.6" rx="0" ry="0" width="77.39" height="9.2" />
</g>
		<g transform="matrix(2.19 0 0 2.19 160.45 -132.21)"  >
<rect style="stroke: none; stroke-width: 1; stroke-dasharray: none; stroke-linecap: butt; stroke-dashoffset: 0; stroke-linejoin: miter; stroke-miterlimit: 4; fill: rgb(255,255,255); fill-rule: nonzero; opacity: 1;" vector-effect="non-scaling-stroke"  x="-38.695" y="-4.6" rx="0" ry="0" width="77.39" height="9.2" />
</g>
		<g transform="matrix(2.19 0 0 2.19 -160.26 -132.21)"  >
<rect style="stroke: none; stroke-width: 1; stroke-dasharray: none; stroke-linecap: butt; stroke-dashoffset: 0; stroke-linejoin: miter; stroke-miterlimit: 4; fill: rgb(255,255,255); fill-rule: nonzero; opacity: 1;" vector-effect="non-scaling-stroke"  x="-38.695" y="-4.6" rx="0" ry="0" width="77.39" height="9.2" />
</g>
		<g transform="matrix(2.19 0 0 2.19 0.4 0.45)"  >
<rect style="stroke: none; stroke-width: 1; stroke-dasharray: none; stroke-linecap: butt; stroke-dashoffset: 0; stroke-linejoin: miter; stroke-miterlimit: 4; fill: none; fill-rule: nonzero; opacity: 1;" vector-effect="non-scaling-stroke"  x="-160" y="-180" rx="0" ry="0" width="320" height="360" />
</g>
</g>
</g>
</svg>